<svg width="0" height="0" class="hidden">
  <symbol xmlns="http://www.w3.org/2000/svg" fill="currentColor" viewBox="0 -960 960 960" id="plus">
    <path d="M450-450H220v-60h230v-230h60v230h230v60H510v230h-60v-230Z"></path>
  </symbol>

  <symbol xmlns="http://www.w3.org/2000/svg" fill="currentColor" viewBox="0 -960 960 960" id="active">
    <path d="M100-220.77v-60h391.15v60H100Zm0-195.77v-60h189.23v60H100Zm0-195.77v-60h189.23v60H100ZM817.85-220 663.08-373.62q-22.85 16.62-49.81 25.31-26.96 8.69-54.81 8.69-75.18 0-128.16-52.53-52.99-52.54-52.99-127.66 0-75.11 53.01-127.65Q483.34-700 558.55-700q75.22 0 128.14 52.54 52.92 52.54 52.92 127.46 0 27.85-8.69 54.81t-25.69 49.42L860-262.15 817.85-220ZM558.46-399.62q50.48 0 85.82-35 35.34-35 35.34-85.19T644.28-605q-35.34-35-85.82-35-50.48 0-85.82 35-35.33 35-35.33 85.19t35.33 85.19q35.34 35 85.82 35Z"></path>
  </symbol>


  <symbol xmlns="http://www.w3.org/2000/svg" fill="currentColor" viewBox="0 -960 960 960" id="previous">
    <path d="m618.92-298.92 42.16-42.16L510-492.16V-680h-60v212.15l168.92 168.93ZM480.07-100q-78.84 0-148.21-29.92t-120.68-81.21q-51.31-51.29-81.25-120.63Q100-401.1 100-479.93q0-78.84 29.92-148.21t81.21-120.68q51.29-51.31 120.63-81.25Q401.1-860 479.93-860q78.84 0 148.21 29.92t120.68 81.21q51.31 51.29 81.25 120.63Q860-558.9 860-480.07q0 78.84-29.92 148.21t-81.21 120.68q-51.29 51.31-120.63 81.25Q558.9-100 480.07-100ZM480-480Zm0 320q133 0 226.5-93.5T800-480q0-133-93.5-226.5T480-800q-133 0-226.5 93.5T160-480q0 133 93.5 226.5T480-160Z"></path>
  </symbol>

  <symbol xmlns="http://www.w3.org/2000/svg" fill="currentColor" viewBox="0 -960 960 960" id="payment">
    <path d="M451.69-207.69h54.62v-48.46q46.54-6.31 84.27-34.97 37.73-28.65 37.73-86.88 0-42-24.77-74.31-24.77-32.3-96.77-58.3-63.08-21.54-83.77-37.31-20.69-15.77-20.69-44.08t21.19-46q21.19-17.69 58.5-17.69 31.23 0 50.38 14.73 19.16 14.73 29.47 36.96l49.38-19.85q-12.54-31.92-40.88-54.65-28.35-22.73-62.04-25.35v-48.46h-54.62v48.46q-51.15 9.85-78.57 41.5-27.43 31.66-27.43 70.35 0 45.08 27.31 72.54 27.31 27.46 89 49.61 63.77 23.39 87.12 41.97 23.34 18.57 23.34 49.88 0 37.62-27.15 54.65-27.16 17.04-61.31 17.04-33.77 0-60.42-20.3-26.66-20.31-40.97-59.39L334-365.38q15.54 44.53 44.65 70.76 29.12 26.23 73.04 36.47v50.46ZM480-100q-78.77 0-148.11-29.96-69.35-29.96-120.66-81.27-51.31-51.31-81.27-120.66Q100-401.23 100-480q0-78.77 29.96-148.11 29.96-69.35 81.27-120.66 51.31-51.31 120.66-81.27Q401.23-860 480-860q78.77 0 148.11 29.96 69.35 29.96 120.66 81.27 51.31 51.31 81.27 120.66Q860-558.77 860-480q0 78.77-29.96 148.11-29.96 69.35-81.27 120.66-51.31 51.31-120.66 81.27Q558.77-100 480-100Zm0-60q134 0 227-93t93-227q0-134-93-227t-227-93q-134 0-227 93t-93 227q0 134 93 227t227 93Zm0-320Z"></path>
  </symbol>

  <symbol xmlns="http://www.w3.org/2000/svg" fill="currentColor" viewBox="0 -960 960 960" id="profile">
    <path d="M240.92-268.31q51-37.84 111.12-59.77Q412.15-350 480-350t127.96 21.92q60.12 21.93 111.12 59.77 37.3-41 59.11-94.92Q800-417.15 800-480q0-133-93.5-226.5T480-800q-133 0-226.5 93.5T160-480q0 62.85 21.81 116.77 21.81 53.92 59.11 94.92ZM480.01-450q-54.78 0-92.39-37.6Q350-525.21 350-579.99t37.6-92.39Q425.21-710 479.99-710t92.39 37.6Q610-634.79 610-580.01t-37.6 92.39Q534.79-450 480.01-450ZM480-100q-79.15 0-148.5-29.77t-120.65-81.08q-51.31-51.3-81.08-120.65Q100-400.85 100-480t29.77-148.5q29.77-69.35 81.08-120.65 51.3-51.31 120.65-81.08Q400.85-860 480-860t148.5 29.77q69.35 29.77 120.65 81.08 51.31 51.3 81.08 120.65Q860-559.15 860-480t-29.77 148.5q-29.77 69.35-81.08 120.65-51.3 51.31-120.65 81.08Q559.15-100 480-100Zm0-60q54.15 0 104.42-17.42 50.27-17.43 89.27-48.73-39-30.16-88.11-47Q536.46-290 480-290t-105.77 16.65q-49.31 16.66-87.92 47.2 39 31.3 89.27 48.73Q425.85-160 480-160Zm0-350q29.85 0 49.92-20.08Q550-550.15 550-580t-20.08-49.92Q509.85-650 480-650t-49.92 20.08Q410-609.85 410-580t20.08 49.92Q450.15-510 480-510Zm0-70Zm0 355Z"></path>
  </symbol>

  <symbol xmlns="http://www.w3.org/2000/svg" fill="currentColor" viewBox="0 -960 960 960" id="available">
    <path d="m422.46-323.69 255.85-255.85L650-607.85 422.46-380.31l-114-114L280.15-466l142.31 142.31ZM480.13-120q-74.67 0-140.41-28.34-65.73-28.34-114.36-76.92-48.63-48.58-76.99-114.26Q120-405.19 120-479.87q0-74.67 28.34-140.41 28.34-65.73 76.92-114.36 48.58-48.63 114.26-76.99Q405.19-840 479.87-840q74.67 0 140.41 28.34 65.73 28.34 114.36 76.92 48.63 48.58 76.99 114.26Q840-554.81 840-480.13q0 74.67-28.34 140.41-28.34 65.73-76.92 114.36-48.58 48.63-114.26 76.99Q554.81-120 480.13-120Zm-.13-40q134 0 227-93t93-227q0-134-93-227t-227-93q-134 0-227 93t-93 227q0 134 93 227t227 93Zm0-320Z"></path>
  </symbol>

  <symbol xmlns="http://www.w3.org/2000/svg" fill="currentColor" viewBox="0 -960 960 960" id="nearby">
    <path d="M480.14-490.77q26.71 0 45.59-19.02 18.89-19.02 18.89-45.73 0-26.71-19.03-45.6Q506.57-620 479.86-620q-26.71 0-45.59 19.02-18.89 19.02-18.89 45.73 0 26.71 19.03 45.6 19.02 18.88 45.73 18.88ZM480-172.92q112.77-98.16 178.31-199.66t65.54-175.57q0-109.77-69.5-181.2-69.5-71.42-174.35-71.42t-174.35 71.42q-69.5 71.43-69.5 181.2 0 74.07 65.54 175.57T480-172.92Zm0 53.69Q339-243.92 267.58-351.81q-71.43-107.88-71.43-196.34 0-126.93 82.66-209.39Q361.46-840 480-840q118.54 0 201.19 82.46 82.66 82.46 82.66 209.39 0 88.46-71.43 196.34Q621-243.92 480-119.23Zm0-436.15Z"></path>
  </symbol>

</svg>